/* XPM */
static char *f8c8bdeeb6b2408abf63a14ec49844e9fuN9dy7Kva7ZzmXi[] = {
/* columns rows colors chars-per-pixel */
"64 64 133 2 ",
"   c #8EA937",
".  c #91AE35",
"X  c #94AE3D",
"o  c #96B236",
"O  c #96B23C",
"+  c #99B53D",
"@  c #9BB93D",
"#  c #96AF40",
"$  c #9BB541",
"%  c #9EB942",
"&  c #9DB34B",
"*  c #A1B747",
"=  c #A2BC45",
"-  c #A2B649",
";  c #A5BD49",
":  c #A9BE4D",
">  c #A7BE50",
",  c #ACBE51",
"<  c #AFBC58",
"1  c #B1BE56",
"2  c #A5C046",
"3  c #A6C149",
"4  c #AAC34C",
"5  c #ACC64D",
"6  c #AEC84E",
"7  c #AEC251",
"8  c #AFC850",
"9  c #AFC259",
"0  c #B0C051",
"q  c #B1C153",
"w  c #B2C455",
"e  c #B5C456",
"r  c #B4C955",
"t  c #B8C857",
"y  c #B6C559",
"u  c #B7C35C",
"i  c #BAC55C",
"p  c #B6C85A",
"a  c #BAC95D",
"s  c #B5C663",
"d  c #BBC562",
"f  c #B7C864",
"g  c #BDCA62",
"h  c #BEC866",
"j  c #BFCC6F",
"k  c #C2CA63",
"l  c #C2CB65",
"z  c #C0C867",
"x  c #C3CB6B",
"c  c #C4CD6A",
"v  c #C6CC6F",
"b  c #C8CE6C",
"n  c #C9CE6D",
"m  c #C6D16C",
"M  c #CBD16E",
"N  c #C9CD71",
"B  c #CACE72",
"V  c #CBCE73",
"C  c #CBCE76",
"Z  c #CCCF76",
"A  c #D0CF72",
"S  c #C5D173",
"D  c #CDD273",
"F  c #CCD077",
"G  c #CDD276",
"H  c #CED276",
"J  c #CCD876",
"K  c #CED379",
"L  c #CED47C",
"P  c #CDD97A",
"I  c #D0D172",
"U  c #D1D375",
"Y  c #D0D476",
"T  c #D2D678",
"R  c #D4D57A",
"E  c #D6D67A",
"W  c #D0D57D",
"Q  c #D9D57E",
"!  c #D3D97C",
"~  c #D9D97E",
"^  c #DBD87F",
"/  c #D1D680",
"(  c #D1D781",
")  c #D1D782",
"_  c #DDD681",
"`  c #D6DC81",
"'  c #D2DA87",
"]  c #D3DA87",
"[  c #DCDA83",
"{  c #DFDC85",
"}  c #D4DC8B",
"|  c #D7DF8B",
" . c #D6DF8D",
".. c #DEDE89",
"X. c #E1D685",
"o. c #E2DA86",
"O. c #E3DE8B",
"+. c #E5DD8C",
"@. c #E4DF8C",
"#. c #E8DE8F",
"$. c #E8DF8F",
"%. c #E7DF90",
"&. c #E8DF90",
"*. c #DDE28B",
"=. c #DAE391",
"-. c #E5E08E",
";. c #E6E08E",
":. c #E8E08F",
">. c #E6E392",
",. c #E9E090",
"<. c #E9E191",
"1. c #EAE193",
"2. c #E8E293",
"3. c #E9E293",
"4. c #EBE294",
"5. c #EBE394",
"6. c #EBE495",
"7. c #EBE496",
"8. c #EBE597",
"9. c #ECE596",
"0. c #ECE497",
"q. c #E6E896",
"w. c #ECE698",
"e. c #EDE698",
"r. c #ECE699",
"t. c #EDE99D",
"y. c #EFEA9E",
"u. c #F0EB9F",
"i. c #EFECA1",
"p. c #F1EEA3",
"a. c #F2F0A7",
"s. c #F3F0A7",
"d. c #F4F2A9",
/* pixels */
"= = 3 3 % % % % 4 5 4 = 2 3 4 = @ O $ % 4 5 5 3 % % % 4 4 3 % % % % = = = % + $ $ % + X O % % % % % % + O # $ % % % % % % % % % ",
"3 3 = $ $ % % % 2 4 4 4 3 2 2 % % $ # % % 3 3 3 % 3 4 3 % $ $ $ % = 2 4 2 @ $ $ @ = % $ $ % % % % @ $ $ $ X O % % % % 3 3 3 % $ ",
"5 4 % $ % % % $ % 2 4 5 3 % + $ $ # $ $ % 3 3 % % % 2 2 $ O X X $ % 4 4 2 2 2 2 = @ = @ = = 2 = % $ $ % % X X $ % % % 4 4 4 2 % ",
"4 3 % % % % $ + @ % % 4 2 $ O + $ # O $ % % % % $ % % % % $ X X $ % % % 2 3 5 5 3 = @ = 3 4 4 % @ % % % $ X X # $ % % % % 3 5 3 ",
"2 % $ $ % % % % % % % $ % $ $ % $ X X $ % = % % $ % % % $ $ $ + $ # % % % 2 2 5 = = = 4 4 = = = % O X # $ $ $ % $ $ $ + % 3 5 3 ",
"% % + $ $ $ % % % $ O X O + @ @ o . X o @ @ % % + + O O X o @ + o o + @ @ + @ @ @ O @ 2 = @ O O o X . X + + + % % + $ $ @ % 3 % ",
"% % % % $ $ $ % $ $ $ $ % = % % % = = = = 4 7 4 = $ $ $ $ $ ; = $ $ % % & % 2 2 ; $ = = = % - $ $ % * = % $ $ % % % $ $ O $ $ $ ",
"% $ % % % = ; < u h x v B S P ' ' L H H H T Y J J H B K B K C C F K H H H S ) }  .} ) H D V C V H K K B D c x i 7 3 ; % % $ % $ ",
"$ $ $ * = ; 4 i b E { @.-.-.w.p.i.7.<.<.<.<.0.0.w.5.<.&.5.>.5.5.5.%.5.%.&.w.p.s.d.s.p.&.&.&.&.&.:.5.<.5.-.-._ D k e : = % $ $ $ ",
"= $ + $ ; 1 u g b E ..>.7.<.<.5.7.5.<.<.<.0.0.p.s.i.5.&.%.0.0.0.5.%.%.5.w.w.0.4.4.w.4.&.&.X.o.&.<.:.0.p.t.-.o.~ D h 7 ; $ $ $ $ ",
"+ $ $ : z B D D D H [ @.#.<.@.#.<.7.4.<.7.i.p.i.t.w.<.%.%.5.5.5.%.%.@.<.4.0.&.&.#.#.&.4.@.+.&.>.0.:.<.t.0.-.X.o.~ Y g > % + $ $ ",
"+ + + , V o.-...[ [ [ { @.@.#.#.>.7.w.<.5.w.s.i.5.&.<.&.&.%.5.5.5.5.<.<.&.&.&.&.+.#.&.&.@.&.4.w.t.<.:.-.-.-.>.@.o.~ c 7 % % = $ ",
"$ % $ : g T >.i.i.t.q.<.>.;.@.&.&.4.4.<.&.&.0.0.0.5.%.%.&.0.i.a.p.p.0.&.@.X.X.X.X.+.@.@.&.&.&.&.:.-.+.+.@.O.X.[ K h < ; % 3 4 = ",
"= = = 3 4 a P *.q.q.>.&.<.+.&.<.&.&.#.&.&.&.&.&.0.5.@.@.@.0.i.p.p.t.&.X.X.X.X.X.X.X.@.<.4.y.t.&.+.o.[ ^ [ o.o.[ H s ; % % 3 5 4 ",
"4 5 4 3 4 w a c H W [ @.+.+.@.&.&.&.&.&.4.&.&.&.&.@.X.o.&.<.4.<.5.&.+.X.X.o.+.&.<.:.0.t.p.s.p.<.o.Q E E Q _ [ E c y % $ $ = 4 4 ",
"5 6 5 r g m H T E T Q [ +.o.#.@.&.&.&.&.&.@.o.o.X.o.@.&.w.4.<.@.@.@.+.+.o.@.&.&.5.0.p.p.p.w.5.@.+.X.Q X.) H c d y - $ + % % = 2 ",
"3 4 4 i M [ o.o.Q Q Q o.o.o.X.+.<.7.t.4.&.+.X.X.@.+.+.4.4.4.&.<.0.7.7.7.<.&.&.&.5.5.t.i.i.5.&.@.o.{ { [ T m f q = O X $ = = = % ",
"@ = 4 i V Q X.X.X.Q _ @.+.o.+.+.7.i.i.t.%.@.&.@.@.%.&.&.5.<.%.w.p.s.i.0.5.&.&.&.%.&.5.5.2.0.5.@.o.o.[ [ T D k 7 = $ $ $ % @ = + ",
"O + = 7 i b I Q ~ Q ~ ~ [ [ ..+.:.0.t.>.&.&.&.&.%.@.%.5.t.p.p.i.i.r.7.5.<.%.&.%.%.@.%.&.%.2.&...*.>.>.>.-.[ D q = + $ + $ $ + + ",
"X X O $ : e x A E E E M D _ { +.-.@.<.<.<.<.&.<.5.7.7.i.p.a.a.i.<.>.&.&.&.%.4.4.4.&.%.>.%.2.<.&.>.q.t.t.7.[ c q = = = % $ + $ $ ",
"$ $ + $ = : i k J ~ Y m D ~ *.;.+.@.&.4.w.4.&.5.7.i.p.s.p.t.w.<.<.+.&.&.@.4.t.p.p.%.%.@.4.w.t.i.t.q.<.<.` D a 4 ; 5 5 = $ % $ $ ",
"% $ % % % ; i M ~ >.*.E J Y [ o.+.@.>.&.w.4.%.%.#.5.i.w.4.<.&.@.@.@.o.+.@.<.w.p.0.5.&.&.4.4.w.t.>.-.+.+.[ ~ H D c y 4 = = = = % ",
"O $ 7 p 7 w h Y *.q.q.>.*.Y Q o.+.+.+.+.+.&.%.@.+.+.@.<.@.&.&.#.o.X.X.o.&.4.&.&.#.#.&.@.+.&.&.@.-.+.+.+.+.O.O...P i ; = % % @ % ",
"X & j P P J m m J ! ! ` [ E Q o.+.@.+.X.X.+.+.@.+.#.<.#.&.&.&.&.#.+.+.#.4.w.4.+.@.X.X.+.X.X.@.+.-.+.:.-.O.[ E D c a 7 ; $ $ $ $ ",
"  & s L ` *.! T T M T E E E Q o.@.+.@.X.@.@.4.5.%.%.%.5.t.t.t.w.4.4.2.%.5.0.>.@.X.X.X.o.o.o.+.#.-.O.-.[ *.~ ! ! S g q ; $ $ $ $ ",
"  # $ 7 c ~ _ o.-.-.o.~ E E Q o.@.@.#.@.%.>.0.0.%.%.%.t.p.s.d.p.p.w.5.%.2.%.@.X.X.X.o.#.&.&.>.0.<.O.~ E T ! *.q.*.S 1 - $ $ % $ ",
"# O O $ 7 d b T *.-.:.-.-.o.{ { ..>.q.<.%.<.5.<.%.&.%.5.w.t.w.0.5.5.5.0.&.&.@.+.@.@.#.>.&.&.&.4.@.O.{ _ o.*.-.-.[ c q ; $ % % % ",
"$ # $ $ @ ; q l T -.-.q.>.;.o.o...>.q.5.%.<.<.5.<.+.+.@.#.&.&.@.+.&.0.0.4.&.&.&.0.w.w.w.0.&.&.&.O.O.o.-.-.o.[ ~ b i 4 : 3 = % % ",
"$ $ % % @ = 7 f c D ~ ^ -.-.-.o.O.+.@.&.&.0.w.0.%.@.X.+.#.#.-.<.<.&.&.>.&.&.4.w.p.p.s.s.p.0.&.&.@.@.&.>.-.[ I l r 4 3 4 5 = = + ",
"$ % 2 3 = % ; q a m E ^ :.5.5.-.+.+.+.@.&.<.>.&.&.@.+.+.#.<.7.0.<.%.5.t.p.p.s.p.p.t.p.0.t.w.<.@.o.o.@.&.o.~ m g r 5 4 5 5 = % % ",
"% % 4 4 3 = = 4 a M ~ :.:.q.>.:.+.&.<.5.0.0.0.>.&.&.5.#.#.<.w.0.5.%.0.0.p.p.a.a.t.#.@.@.:.0.<.@.o.Q +.o.~ T m g r 6 4 3 3 = = % ",
"% % % 3 4 r r t z T ~ -.:.5.:.:.@.%.<.i.a.a.a.t.&.@.&.&.#.&.<.4.<.%.&.5.&.w.4.w.&.5.&.&.:.<.@.#.@.{ [ Q ! M l y 4 5 4 3 % = % + ",
"$ $ @ = : e t k D ~ ..+.<.>.7.t.t.0.w.w.p.p.p.0.&.@.&.w.t.t.<.+.%.%.&.&.&.&.+.+.+.+.%.&.&.5.q.0.>.*.! D m k a 4 = = % = % $ O $ ",
"$ + $ % = 4 e z D T O.+.>.t.i.s.p.p.w.4.+.&.&.&.&.&.&.w.i.p.4.>.@.<.&.&.@.@.X.X.@.%.&.&.5.t.t.t.>.*.! S g t 5 = % $ $ $ + + X X ",
"+ + * = * = 3 q i x ) >.t.i.s.i.t.w.&.&.&.+.&.&.&.5.&.4.7.7.#.<.%.&.%.@.@.X.+.+.%.%.5.w.t.t.2.>...` { [ D e : ; = * $ $ $ + $ $ ",
"$ $ + = = = = = q x W *.q.q.>.<.&.&.&.&.&.+.+.o.+.+.@.@.#.>.<.&.&.0.w.t.4.4.4.4.5.%.5.0.0.5.+.[ [ _ +.[ A u 4 : : 4 ; = $ % % $ ",
"= = = = 3 4 2 = e V [ [ O.{ [ +.#.+.+.#.%.o.X.X.o.+.#.#.&.<.<.7.7.i.s.s.p.p.p.t.4.&.&.&.<.&.>.%.@.@.o.Q A z k k g t 7 3 = % % $ ",
"= 3 3 3 3 3 % 2 : i K &.<.+.[ _ _ +.@.@.o.o.@.@.+.+.&.:.@.0.p.i.s.s.s.i.p.w.w.&.4.&.&.&.+.%.t.t.4.>.@.[ X.Q W [ P c t 7 5 * % $ ",
"5 5 3 3 = ; 7 w 7 y v [ +.+.+.[ _ +.+.+.O.%.<.5.#.<.&.#.#.0.p.p.s.i.t.4.&.%.&.%.+.+.@.<.<.7.i.i.0.&.-.<.:.#.-.[ E c t 7 4 2 = = ",
"4 3 = = % : f m v c c c V Q X.o.X.+.+.+.>.0.0.5.&.#.:.#.<.#.5.4.>.7.<.&.&.&.&.%.@.o.@.2.7.7.0.&.<.@.5.0.<.-._ Y c i 7 3 % 4 4 3 ",
"3 = = % = : y m Y ^ E m I Q [ +.@.@.+.%.&.5.5.<.&.#.+.+.+.&.@.&.<.0.>.@.&.&.&.&.&.+.+.&.5.0.>.@.+.>.<.:.+.Q m k y 4 - * = 3 6 2 ",
"% @ $ = @ = q a D o.+.{ { [ [ O.+.&.5.<.5.0.0.5.&.@.X.+.#.&.&.<.0.0.5.%.+.+.+.+.&.&.&.&.+.%.<.2.<.<.{ [ E n i q - $ O $ % = 3 = ",
"$ $ * = ; ; 4 i m E *.q.>.-.{ O.@.4.t.p.a.a.i.t.<.@.+.&.&.&.<.<.<.<.%.%.+.X.X.X.@.&.&.#.@.5.t.i.t.>.[ E M Q M i ; # X $ % = = % ",
"$ = 7 i d k g d l K [ >.>.-.-.7.p.p.p.i.i.i.i.t.4.4.&.&.&.4.t.w.4.&.@.%.+.X.+.@.+.&.w.t.i.t.i.t.q.*.[ [ o.+.! g : $ $ $ $ % % $ ",
"$ ; y c I E D b H ~ ..>.%.>.0.i.a.a.p.w.%.@.&.w.w.0.&.@.@.0.p.p.w.&.<.>.&.&.>.@.&.4.i.d.d.p.t.2..._ [ @.:.+.Y l 7 = $ $ + % % % ",
"# $ 7 i c B E [ -.q.t.t.i.t.0.0.0.0.0.&.%.%.&.<.4.&.&.@.+.@.5.7.<.%.<.&.0.0.7.<.w.p.i.i.t.w.&.[ ..@.o.[ ^ Y k r 3 = % $ % $ + $ ",
"# $ $ : > d B [ >.q.t.i.t.5.0.%.&.5.4.&.+.+.@.+.%.&.&.+.o.+.@.%.@.&.@.&.>.0.<.<.w.p.4.5.&.@.@.+.@.O.o._ I k t 4 = = = = $ # X $ ",
"% $ $ # $ * d K [ ..>.<.&.5.%.&.>.0.&.+.X.X.X.+.&.&.&.&.&.+.&.<.4.<.5.&.4.<.<.<.&.4.&.&.%.@.%.@...O.[ Q Y m l a r w , ; $ # X O ",
"$ $ + $ + $ 7 f Y { -.<.5.<.-.+.+.o.+.X.X.X.+.#.&.0.7.<.<.>.0.w.i.i.t.0.<.&.&.<.&.@.&.&.@.<.t.t.t.q.@.` ` ` T Y H D z q = $ $ $ ",
"$ $ = ; ; 3 3 y m ~ -.<.5.>.@.o.X.+.X.X.+.+.+.#.&.4.0.0.0.t.i.p.a.a.i.w.<.&.%.&.>.0.<.<.4.t.p.p.i.t.>.@.{ -.>.O.[ E c , = $ % $ ",
"% = 4 w r t a l I ~ *.-.-.#.&.#.<.+.<.@.+.<.7.>.#.<.>.t.p.s.d.s.i.t.4.<.<.%.@.<.p.i.4.4.p.p.p.t.4.&.@.>.:.;.+.+.Y g : = $ % % % ",
"3 3 7 w g M T *.-.q.-.-.-.@.@.:.:.0.0.5.#.0.i.7.<.>.i.p.p.p.i.w.0.<.<.&.5.5.5.<.w.w.4.4.w.t.w.5.@.>.4.t.0.-.Q U k 4 = = ; = % % ",
"4 5 3 > z H ! *.q.q.q.@.-.-.@.@.<.0.0.<.<.u.p.0.4.0.p.p.w.w.<.@.%.%.@.%.0.w.4.&.5.5.%.%.&.&.&.&.@.4.t.i.t...Y l q 4 3 4 5 2 ; % ",
"5 3 % ; 7 a g g m D ! ` o.-.@.&.<.<.<.<.-.0.0.5.:.0.w.<.4.&.<.#.%.@.X.+.+.&.&.4.7.0.<.%.&.&.&.&.4.w.0.<.+.[ Y x a r q r 7 6 6 2 ",
"3 % % % ; 4 4 q y z D Q >.<.4.<.#.#.&.&.&.@.#.:.<.<.>.+.&.%.<.<.#.#.+.+.@.&.&.4.0.&.@.o.X.X.&.<.0.0.<.@.;.{ ' H b k a w w 7 6 2 ",
"% % % $ = 7 w f l D E [ +.4.t.<.<.<.<.<.4.<.5.0.t.0.<.#.%.<.&.<.&.5.&.&.&.4.&.&.4.&.@.@.@.@.&.<.<.<.&.&.:.>.+.[ E B g y 7 4 4 3 ",
"= % % ; 7 y l b ! ^ _ _ @.<.4.<.<.<.4.w.w.w.5.&.&.#.+.+.:.>.:.0.p.p.w.&.&.&.&.0.w.u.p.p.p.i.w.&.%.5.<.<.<.-.-...Q H k q : - $ = ",
"% $ * ; : q i d c b B b V E E U Y Y Y ( ) W V J U V b V H K K ~ .. .) V L K K K W } O.*.=.=.) J J E Y T H H H D c g y : ; $ $ $ ",
"$ $ $ % = * @ * = ; = = 3 6 7 4 = = = = - * * = ; ; ; = * $ % = ; = $ # * * - - = = = ; = % ; = 4 7 4 ; ; = 2 ; ; = = % % % % $ ",
"$ $ $ $ @ O + O + O O @ @ @ = * = @ @ = * + + + + + @ @ + + @ @ o o X o + + O X + + . . o @ % @ + $ @ 2 = @ @ 2 2 @ % + $ $ $ $ ",
"% $ $ $ * = = * $ + $ % = % * 3 4 = 2 r q ; + + = + % $ % * = @ $ + $ = @ $ + $ % + O X % * = % + # $ 4 3 = 2 4 3 % + $ O $ # $ ",
"+ $ $ ; q r 4 ; $ + $ = ; 4 4 = ; 2 1 t i > $ $ = = $ $ % 3 4 4 = % % % @ $ % % = + $ * 4 q 3 = $ $ % = % % % % % $ $ % % % % % ",
"$ $ ; i c Y H f 7 % $ = < h z e 7 q r k v d < , 4 4 , : 3 3 5 5 = % $ $ ; 4 q , = % ; w c D g 7 = % % % % $ % % > s f p r r 5 ; ",
"; 7 a m ~ *.*.P g q : : h U E x d f g k x B V h y i d i q 7 7 5 = % + * : k b d ; = 4 h E +.U a 4 * % % % $ $ % 9 j P m m a r 5 "
};
