/* XPM */
static char *_6114db6e6b1428aa7055d07db534057wA91Af2KVaB3TsZh[] = {
/* columns rows colors chars-per-pixel */
"64 64 43 1 ",
"  c #010100",
". c #0D0B05",
"X c #131108",
"o c #1A160B",
"O c #1E1A0D",
"+ c #2A2512",
"@ c #342D15",
"# c #342F1D",
"$ c #37311D",
"% c #3B341D",
"& c #3F381F",
"* c #443B1D",
"= c #493F1D",
"- c #4D421E",
"; c #4F4420",
": c #514621",
"> c #564A23",
", c #5A4D25",
"< c #5C4F28",
"1 c #5E5127",
"2 c #5F5228",
"3 c #625429",
"4 c #66592C",
"5 c #6B5C2E",
"6 c #6D5F30",
"7 c #6F6030",
"8 c #726332",
"9 c #786736",
"0 c #776836",
"q c #7A6937",
"w c #7D6C39",
"e c #816E3A",
"r c #85723D",
"t c #88753F",
"y c #867541",
"u c #897641",
"i c #8D7A44",
"p c #907E47",
"a c #927F48",
"s c #95824A",
"d c #99864E",
"f c #9B884F",
"g c #9D8950",
/* pixels */
"=8tadue9731--14rtdsrq3335trrq85331qrterr88rr873<3,=>8888843>=>3r",
">essdur9833,<57psdst83337trrq84355qtppteewq9459wre668748e853,11r",
"2ugddur8833347qdddsrq3337trrq84358eraftrrr8733rugsue85<8te85331y",
"2yfsdue0733337qdsssrq53:4trrq84358etadpprr8857rtdare8515tq85331w",
"2ygsdye0833337qdddsre83*3trrq84358erafddte8888ttdsre86<8uq652320",
"2udddue0733147qdddsre85>7trrq84<68ersfdstr88889edare8525q0853320",
"2ugddur0833337qdddsre7538trrq75378eradddte88887qfsre86248885<320",
"2wpsdue08333470dsttre84:4qrpre3>58eradputr557879iure852588853330",
"1qrsftr0742337qfsrrre83*<8ugpt3*38etaftrre438879rrtw851488843330",
"38wtiwq87,,3470itqwtq43=,59r08<=489qpduee9337888qwre851588851336",
"358wr8788--2388re79tq3,=>34833>=4988afte8743888888rw851588853335",
"378erq844--3488rr88q83,=>3353>:=>235rprr97,>458880tw873355853333",
"178wt0742--2370re88853,=>333>==-==,3etrr97:-138880re853315853323",
"488qw8744--1478qq8753>>=;>>>:;=-;=>>58qq74-;347888q9875435851453",
"888778742--248888873,-=--=--==-;;===<37833=-13888888888515853585",
"888888742,>,,458753>>-----=*******=;>>11,>=:33887888888533533585",
"88888783233=-33883,=----;;*##$$#$#=;=-==---:24888878888533133587",
"88888qw8832;-2353,:**-=-**$$$$$$$$%*=--=**=;235688q9875433331588",
"88878rrrr41--333<-*#%;-;*#$$$$$$$$##=---$$=;332388te851333333588",
"4880qtirr54;-,>,>-=#%****$$$$$$$$$$$****$$=->,34qwre8533333<>488",
"278ersdte96-=-=-===$$#$$$$$$$$$$$$$$$$$$$$-;=;24rrrw8533333>=388",
"278wrsdte06,:---=**$$$$$$$$$$$$$$$$$$$$$$$**=;24rtitq853333>>355",
"378erddte0742;=-=#$$$$$$$$$$$%$$$$$$$$$$$$#$;;24ridsre8533333333",
"278wrtste0732-;**$$$$$$$$$$$$$$$$$$$$$$$$$$$*=>28wdspr9843333335",
"277wrertr0742-=$#$$$$$$$$$$$$$$$$$$$$$$$$$$$$%=;17dddsre85333319",
"378ettrwq75,>-=$$$$$$$$$$$$$$$$$$$$$$$$$$$$$$%-:17ddsprq85333338",
"358erer8731-=-=$$$$$$$$$$$$$$$$$$$$$$$$$$$$$$%-:17dddsre85333339",
"378wtetq041--**$$$$$$$$$$$$$$$$$$$$$$$$$$$$$$$*->5dsstre84>13349",
"358etrttr41--@$$$$$$$$$$$$$%$$$$$$$$$$$$$$$$$$$%=1dsrrrq81*,358e",
"358qettte43--%$$$$$$$$$$$$$$$$$$$$$$$$$$$$$$$$$%*3dprrrq83-:,48r",
"35888idte41:=$$$$$$$$$$$$$$$$$$$$$$$$$$$$$$$$$$%=2fsrrtw83=-=38t",
"37888sdtr41-=$$$$$$$$$$$$$$$$$$$$$$$$$$$$$$$$$#%=1itrew953:>:48u",
"35888pdye41--$$$$$$#$$#%$#$$#%$$$$$$$$%$$$$$$$$%->80tw852333358u",
"4580qadiu41;=$$$$$$%$$$$$%$$$$$$$$$$$$$$$$%$$$$%-:58rw852323358y",
"888ersdgd52-=$$$$$$$$$$$$$$$$$$$$$$$$$$$$$$$$$$%-:15tw852323358w",
"888wrsdiu42;=$$$$$$$$$$$$$$$$$$$$$$$$$$$$$$$$$$%-:47eq653333255w",
"888ersdq642;=$#$$%#$$$$$$$$$%#$$$$$$$$$$$$$$$$$$=>88852333233310",
"888qeiaq73<;-%%$$$$$$$$$$$%$$$$$$$$$$$$$$$$$$$%*:<wq085333333320",
"88888er883<:--=$$$$$%#$$$$#$$$$$$$$$$$$$$$$$$%=:17fsrrr0<3333330",
"77788we8633---=$$$$$$$$$$$$$$$$$$$$$$$$$$$$$$%-:38darrt033233328",
"35888773133---=$#%$%##%#$$$$$$$$$$$$$$$$$$$$$$=>7wdprrrw85133331",
"35888qq5531----%%##%#%$$$$%#$$#%$%$$$$$$$$$$$*-,8edprrrw85333333",
"37888etrr31:----=####%$$$$$$$$$$$$$$$$$$$$$$=:15rtdsrrtw85333339",
"35778were53--:;-=%%%#$$$$$$$$$$$$$$$$$$$$$$*;>35rtsirrrw84333339",
"3337888er87--31==-=$%%#$$$$$$$$$$$$$$$$$$$=:2488rrrrrrrw85333338",
"3335888er87:-1<:::=%%#$$$$$$$$$$$$$$$$$$$*=-2360reeerreq6433,33q",
"33378778885:---233,=*##%$$$#$$#$$$$$$$$$=;=:3388887qrw85333>=,3e",
"33378080898--;>5443:=%%%%$$%$$%$$$$$%%%*;:=;,3688888rq85233>=,5y",
"33358ertrrw:-14re8721---&$$$$$#$$$$$===-23---:3388888885333,*5tp",
"33478rtttte::35re0741---*%%%%%%%%%%%;>:>13----3488878884333,*7ts",
"377ersddstr4388rrrw842,----*===--=,3587731----3388888885333>=qdd",
"358etsddste318qtttrq841--::,>;;=;:2380q953:--;337788q885233,*qgs",
"358ersdddte--5qdddsdt84=18qr73>=,358erss0732--33347qrw85333,*qfd",
"358ersddstw>>8qssddst83*18wt73>=,378ersd0733-:13348qtw85333>=qfs",
"378erssds073388ttdsre03=18wt73>=<358ersd073331-:15rrre88843>*qfd",
"358erssss073378erssrw83-18qr81>=,378wras083331-:34trrq87853,=wfs",
"358wrddte8733347qrrtq33348wt73>*,358rrtr883333-:15rrre8533331rgu",
"358wridtr07433488rer931147qr72>-1358eere883331-:35trrq8533331wfu",
"33378rtrr0732338888853,-,33333:-,37888888886333315dprw88853320uw",
"34377wrre8733348888753,-,43433,-,37888888886333338dsre88853326q6",
"3qr43788888332478873333<7rrr72313258er8888883334eudare7qrq854%oO",
"1qt7378888733348887333337trr83333378erq888863215tudare79tq843@.X",
"2yftr87873333238885133317rrrq7425888erre8886;:16ssdsrq18tq844+  ",
"2uftr88884233248885333338rrrw8427888errr0887--26dddprq,8tq854+  "
};
