/* XPM */
static char *_9b65934eb7943f0cdc1dc7461fb91c9YiJOFmyU6M7zkD0U[] = {
/* columns rows colors chars-per-pixel */
"64 64 209 2 ",
"   c None",
".  c #151C15",
"X  c #1C1D1B",
"o  c #171715",
"O  c #1A211B",
"+  c #172219",
"@  c #3F1A3B",
"#  c #3D1736",
"$  c #292C2B",
"%  c #272929",
"&  c #2C2936",
"*  c #393B3E",
"=  c #37383E",
"-  c #43193C",
";  c #312448",
":  c #3A244A",
">  c #3C3D44",
",  c #2F2640",
"<  c #4C1F44",
"1  c #4B1742",
"2  c #5A184F",
"3  c #4E2046",
"4  c #40254E",
"5  c #432652",
"6  c #403F48",
"7  c #760D64",
"8  c #6A2B6D",
"9  c #601453",
"0  c #3F4743",
"q  c #444E4B",
"w  c #48444C",
"e  c #47514C",
"r  c #49534F",
"t  c #454456",
"y  c #4D5554",
"u  c #4D5259",
"i  c #515957",
"p  c #4E4C65",
"a  c #534A6E",
"s  c #504D67",
"d  c #5A5C66",
"f  c #544A70",
"g  c #5F4974",
"h  c #6A4776",
"j  c #5D6063",
"k  c #626B6C",
"l  c #626669",
"z  c #6D6E7A",
"x  c #676673",
"c  c #6E7575",
"v  c #6E707A",
"b  c #6D7873",
"n  c #746D7D",
"m  c #8E0776",
"M  c #95077C",
"N  c #513386",
"B  c #562D9E",
"V  c #5C3E93",
"C  c #662495",
"Z  c #5A2DA1",
"A  c #6939AF",
"S  c #6438AD",
"D  c #6938B4",
"F  c #7534AE",
"G  c #5A4586",
"H  c #5C4094",
"J  c #6B5B82",
"K  c #724595",
"L  c #6E6E82",
"P  c #787984",
"I  c #7E7D95",
"U  c #7C28C2",
"Y  c #732FCA",
"T  c #6E32CA",
"R  c #7230CE",
"E  c #7C37C2",
"W  c #7331D1",
"Q  c #7F32D5",
"!  c #821180",
"~  c #971681",
"^  c #A7068B",
"/  c #B60094",
"(  c #B90096",
")  c #B9059A",
"_  c #B41C9A",
"`  c #A91594",
"'  c #B5209C",
"]  c #9317AF",
"[  c #A70AA1",
"{  c #B90CAB",
"}  c #B619BA",
"|  c #BA17A8",
" . c #8325BF",
".. c #9A23BF",
"X. c #B426B2",
"o. c #C2059C",
"O. c #C609A4",
"+. c #DD19BB",
"@. c #D314B5",
"#. c #CF10AD",
"$. c #E118BE",
"%. c #CE33B5",
"&. c #807D9A",
"*. c #8B48B6",
"=. c #B51ECE",
"-. c #8F33C0",
";. c #8D3DC6",
":. c #9537C8",
">. c #8133DA",
",. c #8833DB",
"<. c #9A3AD6",
"1. c #9026CA",
"2. c #A13CD9",
"3. c #A82BCF",
"4. c #9936E6",
"5. c #B62CE5",
"6. c #A837ED",
"7. c #BC35ED",
"8. c #B533E2",
"9. c #A738F1",
"0. c #B336F6",
"q. c #B439F6",
"w. c #B639FA",
"e. c #B93AFA",
"r. c #B936F9",
"t. c #E61DC4",
"y. c #EA1FC6",
"u. c #EE1FCC",
"i. c #DD23CE",
"p. c #D320C4",
"a. c #D22ADB",
"s. c #DD26D2",
"d. c #CA26CB",
"f. c #E720C6",
"g. c #E821C6",
"h. c #EC21CA",
"j. c #E928C9",
"k. c #EC3ECF",
"l. c #EC3ED1",
"z. c #E933D4",
"x. c #CA2EE1",
"c. c #C131EA",
"v. c #CB38E4",
"b. c #C93FFD",
"n. c #C53AF8",
"m. c #D13BF4",
"M. c #D01FC7",
"N. c #BB4AE5",
"B. c #B641F6",
"V. c #B941FA",
"C. c #BC54F6",
"Z. c #BE5BF6",
"A. c #BD54F9",
"S. c #BF61F8",
"D. c #ED49D3",
"F. c #E942D6",
"G. c #EA45D0",
"H. c #CF42FF",
"J. c #C740FE",
"K. c #C36FF6",
"L. c #C471F6",
"P. c #C474FA",
"I. c #F67FE7",
"U. c #82838A",
"Y. c #82839B",
"T. c #898797",
"R. c #918C9C",
"E. c #92929B",
"W. c #9896AA",
"Q. c #9996B3",
"!. c #8E8AA3",
"~. c #A596B1",
"^. c #9EA2B3",
"/. c #A8A5BB",
"(. c #B8B9BC",
"). c #BAAFCE",
"_. c #BBB0CF",
"`. c #B5B1D5",
"'. c #B9B5D9",
"]. c #BEB4D5",
"[. c #A9A6C4",
"{. c #D082C9",
"}. c #C5B9DC",
"|. c #C5BAD9",
" X c #CD8FF6",
".X c #CD91F5",
"XX c #CF99F7",
"oX c #D09BF7",
"OX c #F883EC",
"+X c #CBBEE2",
"@X c #D5AEF6",
"#X c #D6B2F7",
"$X c #FBA2F3",
"%X c #C4C7CB",
"&X c #C8C9CE",
"*X c #CBCAD8",
"=X c #D7D5DD",
"-X c #D3C6EE",
";X c #D3C9E4",
":X c #D3D3E4",
">X c #D6C9F1",
",X c #DCCBF4",
"<X c #CFC1E4",
"1X c #E3D0FB",
"2X c #FFD2FF",
"3X c #E2DFED",
"4X c #F5F5FB",
"5X c #FFFFFF",
"6X c #ECE6F5",
/* pixels */
"                                                                                                                                ",
"                                                                                                                                ",
"                                                                                                                                ",
"                                                                                                                                ",
"                                                                                                                                ",
"                                                                                                                                ",
"                                                                                                                                ",
"                                                                                                                                ",
"                                                                                                                                ",
"                                                                                                                                ",
"                                                                                                                                ",
"                                                                                                                                ",
"                                                                                                                                ",
"                                                                                                                                ",
"                                                    O X O O O O O X O X O O                                                     ",
"                                                    4 5 5 5 5 5 5 5 5 5 5 4                                                     ",
"                                        X O O O . : F -.-.-.-.-.-.-.-.-. .F ; . + + O X                                         ",
"                                        3 3 3 3 < 8 3.e.e.e.w.w.w.e.e.e.v.3.8 3 < 3 1 #                                         ",
"                                    . - M ' ' ' ' X.8.w.w.w.w.w.w.w.w.r.a.p.#.' _ ` ~ 7 # +                                     ",
"                                    w h %.u.h.h.h.s.c.e.e.e.w.q.q.w.7.v.F.D.D.l.j.t.#.^ 9 #                                     ",
"                                . 0 ~.{.G.g.g.g.h.j.m.b.J.J.e.q.q.7.a.l.OX$X$XI.F.y.$.#.^ 7 @ X                                 ",
"                                # 8 I.OXG.t.t.f.s.a.m.H.H.J.e.q.q.7.i.G.$X2X2X$XD.t.t.+.O.m - +                                 ",
"                                m M %.D.j.g.g.i.x.c.n.H.H.J.e.q.q.5.i.D.$X2X2X$XD.t.g.+.O.m @ +                                 ",
"                                _ #.+.g.g.$.+.p.8.q.J.J.J.n.e.q.w.7.i.l.I.$X$XI.l.t.t.+.o.M 9 #                                 ",
"                            O 2 _ $.t.g.g.+.#.| 5.w.w.e.e.e.0.q.q.7.s.j.G.D.D.l.j.t.f.+.) ^ ^ m                                 ",
"                            O < _ h.h.$.+.#.{ } N.Z.B.q.C.Z.B.0.0.7.a.f.t.t.t.t.f.f.f.+.o./ ( ^                                 ",
"                            O 3 ' j.h.$.O.{ =.N..X.XC.C..X.XC.0.0.0.7.x.i.t.t.t.f.f.j.+.O./ ) M 1 O                             ",
"                            O < ` $.+.@.{ =.N.P.oXXXK.K.XXXXK.A.B.q.q.7.a.i.f.t.f.t.+.#.) / ( m - O                             ",
"                            O - M O.o.O.=.N. XXXL.L.XXXXK.L.XX.XC.q.q.0.7.x.i.f.g.$.#.) / / ) m - O                             ",
"                            O - m [ [ =.5.K.#X@XZ.Z.@X@XZ.Z.@X@XK.0.q.q.q.7.d.p.+.#.) / / / [ m - O                             ",
"                            O : C 1.2.5.0.Z.@X@XZ.Z.@X@XZ.Z.@X#XZ.0.q.q.q.6.,...{ ( / / / [ ] B : O                             ",
"                            X ; Z ,.9.e.r.A. X XA.A. X XA.A. X.XC.0.q.q.w.6.>.U ] [ [ [ [ ] U B ; O                             ",
"                            X ; Z >.9.w.w.q.C.C.V.V.J.K.V.V.A.A.q.q.0.e.q.6.>.Y 1.F  . . .U T B ; X                             ",
"                            X & N D <.6.q.w.r.0.2.<.:.:.:.2.9.w.q.q.6.6.6.4.Q Y R W W W W T T N , X                             ",
"                            % & t G D 4.9.e.r.2.K g g g g K <.e.e.6.,.>.>.>.R R W W W W R D G 6 & X                             ",
"                            X $ 0 a H D ;.<.<.*.x k b b k J *.<.6.4.>.R Y R R T D A A A S V p 0 $ X                             ",
"                            X $ 0 u p f g g g L &.^.%X%X^.I J K E Q Q R Y R R A G a a a a p u q $ %                             ",
"                            X $ > q y i e e e k ^.:X4X4X:X^.k p V A A A A A S H p e e r i y w * % X                             ",
"                                % * j k i q q b %X4X5X5X4X%Xb t s f f f a a a p y e q i k l * %                                 ",
"                                X * P E.U.k j P &X4X5X5X4X%Xc q q e e e e e e r i j x P U.z = X                                 ",
"                                o w ~.<X=X(.U.U./.:X4X4X:X^.k q q e q e y q q y l &./.).[.I > X                                 ",
"                                X w R.|.6X6X(.W.W./.*X*X/.!.P c z z v v z z z P T./.|.|.Q.L > o                                 ",
"                                    w n |.6X3X&XE.T.E.E.T.T./.]._._._._._._._.].}.}.].Q.d >                                     ",
"                                    o 6 R.|.3X=X/.R.R.R.E./.<X1X1X1X1X1X1X,X>X>X>X}.Q.z > o                                     ",
"                                        6 x ^.}.+X+X}.}.}.+X,X1X1X1X,X1X1X,X}.`.`.Q.d =                                         ",
"                                        o = L !.~.).+X>X>X>X-X-X-X-X-X>X>X'.Q.Y.Y.L > o                                         ",
"                                            > 6 w x Q.'.'.`.`.`.`.`.`.`.`.Q.d > > >                                             ",
"                                            X X X > L Y.Y.&.Y.&.I Y.Y.Y.Y.L > o X X                                             ",
"                                                    > 6 > > 0 > > 6 > > > >                                                     ",
"                                                    X X X X X X X X X X X X                                                     ",
"                                                                                                                                ",
"                                                                                                                                ",
"                                                                                                                                ",
"                                                                                                                                ",
"                                                                                                                                ",
"                                                                                                                                ",
"                                                                                                                                ",
"                                                                                                                                ",
"                                                                                                                                ",
"                                                                                                                                ",
"                                                                                                                                ",
"                                                                                                                                ",
"                                                                                                                                ",
"                                                                                                                                "
};
