/* XPM */
static char *_34514ec0c66406fffdc1b2e0b7c976eXfYUQGApV4PDsXMN[] = {
/* columns rows colors chars-per-pixel */
"32 32 205 2 ",
"   c #6C3B2C",
".  c #284257",
"X  c #264E6D",
"o  c #294F6D",
"O  c #27506F",
"+  c #2B516E",
"@  c #31526C",
"#  c #3E556B",
"$  c #2B5472",
"%  c #2C5B78",
"&  c #2F607B",
"*  c #32627D",
"=  c #34687F",
"-  c #554C4F",
";  c #74514D",
":  c #6F605F",
">  c #796B5D",
",  c #485668",
"<  c #4C5C6A",
"1  c #5E5C64",
"2  c #666163",
"3  c #776763",
"4  c #71787E",
"5  c #9B461C",
"6  c #9D4922",
"7  c #824933",
"8  c #AD572F",
"9  c #A75938",
"0  c #AB6638",
"q  c #B86637",
"w  c #CC603C",
"e  c #C7783E",
"r  c #845A45",
"t  c #9C5743",
"y  c #895952",
"u  c #AE5E48",
"i  c #976149",
"p  c #986955",
"a  c #916B5B",
"s  c #8B725E",
"d  c #9D7657",
"f  c #A76549",
"g  c #B36344",
"h  c #B7674B",
"j  c #BA7348",
"k  c #A56454",
"l  c #A76B57",
"z  c #B96E55",
"x  c #A97757",
"c  c #BA7552",
"v  c #B77A58",
"b  c #946F64",
"n  c #9B6E62",
"m  c #837B6B",
"M  c #8E7975",
"N  c #A67767",
"B  c #AC7D6C",
"V  c #AE7F70",
"C  c #C36B4B",
"Z  c #C5754B",
"A  c #CA7B4C",
"S  c #D8784A",
"D  c #C26E54",
"F  c #CB7654",
"G  c #CD7953",
"H  c #C87A57",
"J  c #D27354",
"K  c #D37A54",
"L  c #AD815F",
"P  c #B9845B",
"I  c #9E8065",
"U  c #BB886C",
"Y  c #AB8475",
"T  c #AB877E",
"R  c #B38575",
"E  c #B99576",
"W  c #C7874B",
"Q  c #D78247",
"!  c #D2824F",
"~  c #DA854C",
"^  c #D98848",
"/  c #DE924E",
"(  c #CA885A",
")  c #DB8454",
"_  c #D58952",
"`  c #D68955",
"'  c #DC8A55",
"]  c #C79252",
"[  c #D99856",
"{  c #E4854D",
"}  c #E38C4C",
"|  c #E6944D",
" . c #E38451",
".. c #E28C54",
"X. c #E69253",
"o. c #EA9551",
"O. c #EA9E56",
"+. c #DBA45C",
"@. c #E7A649",
"#. c #EAAF56",
"$. c #CB8864",
"%. c #D68863",
"&. c #C59465",
"*. c #D6956C",
"=. c #D9996A",
"-. c #C68D7C",
";. c #C59578",
":. c #D59874",
">. c #E29865",
",. c #E8997A",
"<. c #DEAC66",
"1. c #C6A774",
"2. c #D6A97A",
"3. c #D1B77D",
"4. c #E5AA67",
"5. c #EAAE6C",
"6. c #EAB466",
"7. c #EBB86F",
"8. c #EAC064",
"9. c #356781",
"0. c #366A83",
"q. c #3A748A",
"w. c #3B748C",
"e. c #3E7B91",
"r. c #4E7B89",
"t. c #617782",
"y. c #3F8298",
"u. c #43879B",
"i. c #488DA1",
"p. c #4D9CAD",
"a. c #6094A5",
"s. c #4FA0B1",
"d. c #51A3B3",
"f. c #75A4AC",
"g. c #8E8989",
"h. c #9C9C9C",
"j. c #AD918A",
"k. c #AE938C",
"l. c #B79E98",
"z. c #BCAA86",
"x. c #9B9BA5",
"c. c #81AEBC",
"v. c #8AB6B2",
"b. c #B5ACA8",
"n. c #B9B1AF",
"m. c #BBB8B9",
"M. c #CE9886",
"N. c #CEA18D",
"B. c #CBAF8D",
"V. c #D8A883",
"C. c #DDB484",
"Z. c #D2BC85",
"A. c #DBAD93",
"S. c #DFAB9E",
"D. c #DAB298",
"F. c #E9BB8C",
"G. c #E3B89D",
"H. c #C5AFA9",
"J. c #CBB5A9",
"K. c #DEBAA3",
"L. c #C6BEBC",
"P. c #CDBEBA",
"I. c #D5C189",
"U. c #DBC58A",
"Y. c #DFC88D",
"T. c #E5C889",
"R. c #E4CB8E",
"E. c #E7CF91",
"W. c #EBD191",
"Q. c #CAC1BA",
"!. c #DCC4B9",
"~. c #E7C4A8",
"^. c #E5C7B5",
"/. c #E4CABC",
"(. c #F2C5B6",
"). c #B3C0CD",
"_. c #B2C6D0",
"`. c #C2C4C3",
"'. c #D6CCC7",
"]. c #DACBC7",
"[. c #D8D1CF",
"{. c #D8D7D7",
"}. c #E4CCC4",
"|. c #E6D1C0",
" X c #E5D5CD",
".X c #EBD6CD",
"XX c #E9DDD7",
"oX c #EEDCD4",
"OX c #E2DBDB",
"+X c #F7DCD5",
"@X c #EDE0DB",
"#X c #F1E1DE",
"$X c #D7DEE3",
"%X c #E3E3E3",
"&X c #E8E5E4",
"*X c #EBEBEB",
"=X c #F2E9E6",
"-X c #F4EEEC",
";X c #F6F1EF",
":X c #F8F3EF",
">X c #F4F3F4",
",X c #F9F5F4",
"<X c #F5F7F8",
"1X c #F7F8F9",
"2X c #FFFFFF",
/* pixels */
"2X2X2X2X2X2X2X2X2X2X2X2X2X2X2X2X2X2X2X2X2X2X2X2X2X2X2X2X2X2X2X2X",
"2X2X2X2X2X2X2X2X2X2X2X2X2X2X2X2X2X2X2X2X2X2X2X2X2X2X2X2X2X2X2X2X",
"2X2X2X2X2X2X2X2X2X2X2X2X2X2X2X2X2X2X2X2X2X2X,X;X2X2X2X2X2X2X2X2X",
"2X2X2X2X2X2X2X2X2X-XD. X<X2X2X2X2X2X2X2X2X2XK.C.-X2X2X2X2X2X2X2X",
"2X2X2X2X2X2X2X,X XC.Q ( E Q.>X2X2X2X2X2X2X2X/.[ S.1X2X2X2X2X2X2X",
"2X2X2X2X2X:X^.=./ / e ] ] ! R ].,X2X2X2X2X2X>X( H M.}.2X2X2X2X2X",
"2X2X2X2X;XC.L 2 : W U i l c Z N l.-X2X2X2X2X@XF l k z OX2X2X2X2X",
"2X2X2X2X~.&., X O x .XR 6 5 q ;.B H.2X2X2X2X/.Q 2 , k R *X2X2X2X",
"2X2X2X|.&.1 O O X p ~.*Xt 5 6 q ~ H ].2X2X2X^.A < O @ y N.2X2X2X",
"2X2X>X:.: % 0.9.X p D.2Xl.9 C 8 C u k P.2X2XV.c @ O X , l OX2X2X",
"2X2X/.a % w.w.q.O > A.>X-.F J q D N k.n OX;X=.a X o o O : S.2X2X",
"2X<XE < w.w.w.w.$ 1 v Y f f h A C H.2X&X1X.X! 1 X o O O , V ,X2X",
"2XoXL q.w.w.w.w.$ , v B l 0 C D h l.1X2X=X=.a + O O 0.0.@ N -X2X",
"1XA.m w.r.u.e.w.$ @ z N.%XJ.j K D N <X2XA.p @ O + * q.w.t.B.oX2X",
"XXv r.y.p.d.i.w.* $ a `  X1X*.| K n %XG.x # O O + = q.y.v.8.~.2X",
"^.s y.s.p.d.d.e.9.& , x $.].*.| ) k U H , X + O + 0.y.f.8.#...+X",
"M.t.p.f._.c.r.r.= 9.& # l z ` o.o.u 9 > o o o o % w.u.B.@.@.{ (.",
"-.t.c.>X2Xm.s 3 = 9.& $ - q } o.o.z ; @ o o o o % r.a.3.@.O.} ,.",
"V 4 $X2X1Xb.;.j L.).t.- r | o.o.o.) ; . $ $ o , g.$X[.>.| )  .S ",
"j.J.2X2X2X'.v S 2.K.( ` ..O.5.5.5.X.h   M x.1 g.V `.S.S _ )  .w ",
">X1X2X2X2X2X[.R Z P A ' 5.E.W.W.W.T.2.t 0 ` ! H k H.oXJ F )  .>.",
"2X2X2X2X2X2X2X*Xl.H.p 2.W.W.W.W.W.W.T.P r l N j.L.1X#X' %.F ) F.",
"2X2X2X2X2X>X@X/.D.R c T.W.W.W.W.W.W.W.2.p m.>X2X2X2X2X!.3.F.=.oX",
"2X2X2X-X^.3.<.6.] W 4.W.W.W.W.W.W.R.R.U.v V '.;X2X2X,X}.[ V.}.2X",
"2X2X=X*.} O.7.+.6.7.7.R.W.E.E.R.T.Y.T.I.$.A z &.A.A.=._ H !.2X2X",
"2X2XK.} o.o.| / 6.O.4.U.Y.Z.I.U.Y.Y.Y.3.( X.! f ~ ^ Z B Q.2X2X2X",
"2X2XM.Q o.o.Q Q O.) H V.Z.I.I.I.I.I.I.1.A o. .t k Y H.*X2X2X2X2X",
"2X2X[.l F G Z g K D z $.Z.I.Z.I.I.I.Z.P ) ..K k H.<X2X2X2X2X2X2X",
"2X2X2X[.T B x 0 ` H D u P I.I.I.Z.3.L Z ) F h k.1X2X2X2X2X2X2X2X",
"2X2X2X2X<X`.I [ 6.O.G 7 7 d 1.1.z.b.k.f z n b h.*X2X2X2X2X2X2X2X",
"2X2X2X2X2X{.n.R J.( ;.b.{.{.XX@X=X2X>Xl.M h.h.h.%X2X2X2X2X2X2X2X",
"2X2X2X2X2X>X[.`.`.OXn.%X2X2X2X2X2X2X2X1X*X*X*X>X2X2X2X2X2X2X2X2X"
};
