/* XPM */
static char *dfa81f2c97e14f1d94bb369f8a39a5e8VMsv3Q0N1nVwxpyP[] = {
/* columns rows colors chars-per-pixel */
"64 64 210 2 ",
"   c None",
".  c #0B0A06",
"X  c #0C0B09",
"o  c #040403",
"O  c #1C140A",
"+  c #13100B",
"@  c #0E0F11",
"#  c #091816",
"$  c #1D1B15",
"%  c #1E1D1B",
"&  c #191715",
"*  c #100B04",
"=  c #261B0C",
"-  c #2A1D0C",
";  c #211508",
":  c #231E15",
">  c #1F261A",
",  c #2D210E",
"<  c #32230E",
"1  c #3C280E",
"2  c #27231A",
"3  c #392710",
"4  c #3B2A12",
"5  c #372915",
"6  c #39301E",
"7  c #1F1F20",
"8  c #182629",
"9  c #2A2926",
"0  c #393528",
"q  c #273839",
"w  c #383736",
"e  c #422E13",
"r  c #4D3617",
"t  c #4B3919",
"y  c #493517",
"u  c #553D1A",
"i  c #553917",
"p  c #423D2F",
"a  c #5B431D",
"s  c #55401E",
"d  c #65491E",
"f  c #6D4A1E",
"g  c #61421B",
"h  c #4B402F",
"j  c #56472B",
"k  c #454032",
"l  c #4B4635",
"z  c #4E483A",
"x  c #534D3C",
"c  c #59543F",
"v  c #654B22",
"b  c #674B22",
"n  c #6B512B",
"m  c #735625",
"M  c #7B5322",
"N  c #765A2C",
"B  c #69553B",
"V  c #775A32",
"C  c #7B6435",
"Z  c #3D3E41",
"A  c #2C5353",
"S  c #386451",
"D  c #3B5F65",
"F  c #35726C",
"G  c #5B5546",
"H  c #5B5957",
"J  c #695C47",
"K  c #725C40",
"L  c #6A614B",
"P  c #7A6243",
"I  c #6F6452",
"U  c #746D58",
"Y  c #7B7359",
"T  c #7A7256",
"R  c #516C6D",
"E  c #6D6E6F",
"W  c #7F7763",
"Q  c #707C76",
"!  c #895E26",
"~  c #815D30",
"^  c #89622A",
"/  c #9A692C",
"(  c #97672D",
")  c #876939",
"_  c #946E3D",
"`  c #916833",
"'  c #9D7338",
"]  c #A67737",
"[  c #B47A33",
"{  c #B47D3A",
"}  c #B97D32",
"|  c #AD752F",
" . c #846D45",
".. c #876B46",
"X. c #8C7448",
"o. c #95794A",
"O. c #977845",
"+. c #897858",
"@. c #937C5D",
"#. c #A57F45",
"$. c #867D65",
"%. c #867E76",
"&. c #7C967E",
"*. c #BA8B3C",
"=. c #BB8237",
"-. c #C58637",
";. c #C4863A",
":. c #CD8B39",
">. c #C68B3C",
",. c #D18E3A",
"<. c #9A8558",
"1. c #A2804A",
"2. c #AC8648",
"3. c #B48946",
"4. c #B88D4A",
"5. c #BA914D",
"6. c #B38E55",
"7. c #A59253",
"8. c #8C8364",
"9. c #8A886C",
"0. c #9B8D6D",
"q. c #958767",
"w. c #9A8D74",
"e. c #999276",
"r. c #909564",
"t. c #A08F6B",
"y. c #AE916E",
"u. c #B89B6E",
"i. c #AC9E7D",
"p. c #A39A74",
"a. c #B39F79",
"s. c #B5AA69",
"d. c #B6A873",
"f. c #CA9643",
"g. c #CC9B4C",
"h. c #C89746",
"j. c #DE9E44",
"k. c #D49C45",
"l. c #C69853",
"z. c #CEA04D",
"x. c #DBA54D",
"c. c #D7A249",
"v. c #CFA15D",
"b. c #D9A856",
"n. c #E2A244",
"m. c #E3AA4C",
"M. c #ECAE4C",
"N. c #E8A948",
"B. c #EDB34F",
"V. c #F4B34C",
"C. c #F8B84E",
"Z. c #E6AD53",
"A. c #ECB250",
"S. c #EDB559",
"D. c #F3B652",
"F. c #F7B951",
"G. c #FEBD52",
"H. c #F4BB5B",
"J. c #F2AF4B",
"K. c #D2AA62",
"L. c #DDB56D",
"P. c #C2A575",
"I. c #D3AC72",
"U. c #EBBA64",
"Y. c #E6B774",
"T. c #ECB769",
"R. c #FFC154",
"E. c #FFC25C",
"W. c #FDC664",
"Q. c #FFC867",
"!. c #FFCA6C",
"~. c #F9C46A",
"^. c #EBC77A",
"/. c #FDCB74",
"(. c #F8CF7F",
"). c #FFD37E",
"_. c #488A89",
"`. c #518586",
"'. c #4B9A95",
"]. c #4E9392",
"[. c #698B84",
"{. c #4AB29D",
"}. c #75AF86",
"|. c #B29F81",
" X c #B1A485",
".X c #A8A5A2",
"XX c #BDB7B0",
"oX c #C5AD88",
"OX c #CAB38C",
"+X c #C9B087",
"@X c #DAB985",
"#X c #C9B391",
"$X c #D4BE93",
"%X c #D3BC9D",
"&X c #DBC69A",
"*X c #DDCA9C",
"=X c #D7C197",
"-X c #FFD583",
";X c #FFD885",
":X c #E1CA9B",
">X c #F5CD87",
",X c #D2C9AD",
"<X c #E3CFA0",
"1X c #E6D2A1",
"2X c #E9D6A4",
"3X c #EDD9A7",
"4X c #EDD9AF",
"5X c #F6E4AE",
"6X c #FAEAB1",
"7X c #FFF1B6",
/* pixels */
"                                                                                                                                ",
"                                                                                                                                ",
"                                                                                                                                ",
"                                                                                                                                ",
"                                                                                                                                ",
"                                                                                                                                ",
"                                                                                                                                ",
"                                                                                                                                ",
"                                                                                                                                ",
"                                                                                                                                ",
"                                                                                                                                ",
"                                                                                                                                ",
"                                  0 c                                                                                           ",
"                                  l e.2                               0 X                                                       ",
"                                  0 8.l                             J T                                                         ",
"                                    G q.:                         p 0.0                                                         ",
"                                    l e.2                         x 0.$                                                         ",
"                                    l i.0                       k e.G X                                                         ",
"                                      T W 9 X         .     . 9 8.U %                                                           ",
"                                      0 8.w.Y x     b ^ t U 8.8.L 2                                                             ",
"                                        k +.9.W p a f.h.+.0.0.Y 2                                                               ",
"                                          X & W U ) g.q.e.+.: .                                                                 ",
"                                              H 8.{ X. X9.3.b                 4 y <                                             ",
"                                              z 6.B.X.e.q.c.c.a               m z.V                                             ",
"                                              C V.G.O.I l.D.G.*.<             N s.r.m                                           ",
"                                            a x.G.G.x.g.M.G.G.c.e             ^ p.[.7.u                                         ",
"                                            m G.G.G.R.k.f.M.G.D.' ,         a f.r.'.s.s                                         ",
"                                          y *.G.G.G.>X+.w.l.V.R.f.,         m K.&.{.&.<.e                                       ",
"                                          v F.G.G.G.y.Z .Xu.N.R.z.,       3 C &.].'.{.s.s                                       ",
"                                        5 O.W.E.G.G.V & .XP.N.G.>.,       i <.'.'.F F r.C                                       ",
"                                         .^.;X!.R.G. .w XXY.C.G.c.a     O j 9._.F q # S 7.u                                     ",
"                                      j L.;X;X).W.F.#.q.4X/.C.G.R.*.2   s U &.A #     > ` y                                     ",
"                                      s U.).-X/.G.G.B.S.~.H.n.V.R.c.h 4 T &.A #         ,                                       ",
"                                      s B.W.H.G.G.G.G.G.C.>.:.C.R.R.2.G &.`.A                                                   ",
"                                      s M.G.G.G.G.G.G.G.B.O.h.G.R.C.V.<.R D 7                                                   ",
"                                      4 ' G.m.n.G.G.G.F.2.@.Z.G.C.R.R.M.+.q o                                                   ",
"                                        e =.N.m.R.G.g.1.t.OXY.F.G.G.G.G.x._ m t                                                 ",
"                                        = N 4.5.5.5.<.9.*X2X+XH.G.G.R.R.R.F.R.2.j 0             e e                             ",
"                                        b ' K K V J i.2X1X&X$XU.G.V.c.g.x.R.Q.>X^.o.2       < i [ / O                           ",
"                                      5 ] :.;.] ` ` u.$X$X3X2X@XH.m. .L X.m.W.).;X^.C O ; 3 / } -.^ O                           ",
"                                      $ V [ } M , d P.3X3X3X*X1X@XS.b.h.) O.G.Q.).).b.V ~ | -.,.| 4                             ",
"                                        & < 3 -   : @.=X$X$X2X6X1XL.H.C.2.X.D.E.W.H.Z.P #.,.:.,./ ;                             ",
"                                                  X $.2X1X2X6X5X$XoXL.G.B.2.5.H.J.n.@X%.] :.,.[ u                               ",
"                                                  i +.*X7X7X6X*XoX&X:XK.x.x.1.O.P.y.%.@.} ,.=.d                                 ",
"                                                e / K i.<X<X:X&X:X5X$X6.x.!.v.O.w.E B { ,.-.! ;                                 ",
"                                                f :.' $.oX$X&X5X3X<XP.4.T.-X/.H.4.J O.:.( M <                                   ",
"                                                f ,.:.X.|.1X4X1XOXOXP.l.-X-X-X!.D.2.O.( e *                                     ",
"                                                g } ,.=...w.|.oX#XOX4.D.).-X-XQ.G.A.) :                                         ",
"                                                = M :.:.{ K I |.#Xi.*.F.W.)./.G.G.F.n                                           ",
"                                                  < ! :.:.{ #.J w 6 j m.R.E.E.G.G.j.i                                           ",
"                                                    4 n { ,.[ 6     = ^ A.G.G.G.M.! <                                           ",
"                                                    4 V { M i         4 V 3.j.J.J.d                                             ",
"                                                  X J l.! -             @ n j.V.M.g                                             ",
"                                                    H ..4                 J T.J.T.B                                             ",
"                                                      +                   H %XY.#XH                                             ",
"                                                                          7 %.,XQ                                               ",
"                                                                            % w 9                                               ",
"                                                                                                                                ",
"                                                                                                                                ",
"                                                                                                                                ",
"                                                                                                                                ",
"                                                                                                                                ",
"                                                                                                                                ",
"                                                                                                                                "
};
