/* XPM */
static char *_8cfc1374f6b402bc2faf4b74d015f65tC0aMLZfBGOKfXhv[] = {
/* columns rows colors chars-per-pixel */
"64 64 139 2 ",
"   c #6B9ED6",
".  c #6C9FD8",
"X  c #6DA3D6",
"o  c #6FAAD5",
"O  c #6EA3D8",
"+  c #70A6D7",
"@  c #71ADD6",
"#  c #71A5D9",
"$  c #75ABDB",
"%  c #79AEDD",
"&  c #74B0D7",
"*  c #74B2D7",
"=  c #73B1D7",
"-  c #75B0D9",
";  c #76B0D9",
":  c #76B1D9",
">  c #75B2D8",
",  c #77B3D9",
"<  c #77B1DA",
"1  c #77B1DB",
"2  c #77B2DB",
"3  c #77B4D9",
"4  c #76B2D9",
"5  c #78B2DB",
"6  c #79B4DB",
"7  c #7BB6DB",
"8  c #7AB7DB",
"9  c #78B0DC",
"0  c #79B1DC",
"q  c #78B0DD",
"w  c #79B0DD",
"e  c #7AB1DD",
"r  c #79B2DC",
"t  c #7AB2DC",
"y  c #7AB2DD",
"u  c #7AB3DD",
"i  c #7AB0DE",
"p  c #7AB1DE",
"a  c #7BB1DE",
"s  c #7AB0DF",
"d  c #7BB2DE",
"f  c #7AB3DE",
"g  c #7BB2DF",
"h  c #7CB3DE",
"j  c #7CB2DF",
"k  c #79B4DC",
"l  c #7AB4DC",
"z  c #7AB4DD",
"x  c #7BB4DD",
"c  c #7AB5DD",
"v  c #7BB6DC",
"b  c #7BB7DC",
"n  c #7BB7DD",
"m  c #7BB4DE",
"M  c #7CB4DD",
"N  c #7CB5DD",
"B  c #7CB5DE",
"V  c #7CB5DF",
"C  c #7CB6DE",
"Z  c #7DB7DE",
"A  c #7DB6DF",
"S  c #7EB7DF",
"D  c #7AB3DD",
"F  c #79B8D9",
"G  c #79B8DA",
"H  c #7AB8DB",
"J  c #7BB8DB",
"K  c #7BB9DB",
"L  c #7CB9DB",
"P  c #7BB8DC",
"I  c #7CB8DC",
"U  c #7CBADC",
"Y  c #7DBADC",
"T  c #7CBBDC",
"R  c #7EB9DF",
"E  c #7DBCDC",
"W  c #7FBFDD",
"Q  c #7FBDDF",
"!  c #7DBADD",
"~  c #7BB1E0",
"^  c #7CB1E0",
"/  c #7DB1E0",
"(  c #7DB2E0",
")  c #7DB3E0",
"_  c #7CB4E0",
"`  c #7DB4E0",
"'  c #7DB5E0",
"]  c #7DB4E1",
"[  c #7EB4E0",
"{  c #7EB5E0",
"}  c #7EB4E1",
"|  c #7EB5E1",
" . c #7FB5E1",
".. c #7EB6E0",
"X. c #7FB7E0",
"o. c #7FB6E1",
"O. c #7FB6E2",
"+. c #7EB5E1",
"@. c #7FB8E0",
"#. c #7FB9E0",
"$. c #7FB8E1",
"%. c #7FBBE0",
"&. c #7FB9E0",
"*. c #80BADF",
"=. c #80BDDF",
"-. c #80B7E1",
";. c #80B7E2",
":. c #80B9E1",
">. c #80BBE0",
",. c #82B8E2",
"<. c #82B9E2",
"1. c #82B9E3",
"2. c #81BCE1",
"3. c #82BFE0",
"4. c #83BFE1",
"5. c #84BEE3",
"6. c #83BAE4",
"7. c #84BBE4",
"8. c #84BCE4",
"9. c #85BCE5",
"0. c #85BDE5",
"q. c #86BDE5",
"w. c #84BEE4",
"e. c #86BEE5",
"r. c #82BBE3",
"t. c #88BFE6",
"y. c #82C0DF",
"u. c #82C2E0",
"i. c #84C0E2",
"p. c #84C2E2",
"a. c #85C3E3",
"s. c #85C4E1",
"d. c #87C7E2",
"f. c #86C1E5",
"g. c #87C6E4",
"h. c #85C3E2",
"j. c #88C7E4",
"k. c #88C6E4",
"l. c #89C9E4",
/* pixels */
"    o @ $ $ % % c U U U $   X O $ ~ $ O O . # b u % % % % $ % F U F F = = o X : u @ @ X X O X # $ % 6.6.q.1._ _ T ~ $ $ # # % % ",
"  X o o $ $ % % c U b L $   O O $ $ $ O O # # u u % % $ $ $ % c c U F o o o o : u @ @ X   O # # # u 1.6.q.1.} } _ c % $ # # % ~ ",
"X X o o o o @ o % % + # O O # O $ $ % ~ ~ c j } % # # . X X X = & % % % $ # $ $ % # X X @ + # # # j 1.6.q.q.q.q.g.i.i.Q ~ % % % ",
"o X o X X o o o % $ #   O X # # O $ % $.} r.b } $ #         X o @ % % $ % % $ % $ O   o & + X # $ % 6.6.q.q.q.i.g.g.u.i.} } % % ",
"X X X   X   X X @ @ : t $ O # # % } $.i.1.$ % $ # # O O X o + 3 t + # # # + O $ % $ $ % 6 % $ % % } r.;.j *.} } } } 2 % 2 2 % @ ",
"              X + @ F =.% X # $ _ 8.8.d.%.$ $ # # # O O X + = L 6           . # % % % c Q b % j / ;.r.} % % } % % $ $ $ = = @ = ",
"X X X       X O % % j b u t *.U $.$.%.u.%._ u 2 % $ # O + : : : @ +     O . # % j $ # : : : @ t t c c b ;.u % ~ % $ $ $ @ @ o @ ",
"% %         $ % % % % % U h.h.k.Q %.%.Q Q W T T 3 @ @ o @ c c @ @     O   O # % ;.# X X + @ = = : & F 6 ;.} $ $ $ # # O $ $ o o ",
"# # # # # # # # O $ $ # u Q U $.r.r.r.i.%.T c 2 2 @ $ % $ $ $ = @ + X X O % % } $.2 $ O # + + $ o $ $ : $.T % : % @ o # O O O O ",
"    $ % % $ X       O O @ c 2 % } q.q.q.1.~ % $ $ O O % @     o @ @ @ + # } r.1.1.T T @ O     X O X X % y.F 3 * : : @ O O X X X ",
"  . $ % $ % $ + X o X o @ 2 % % } r.1.6.} } } u % $ $ u u $ $ o @ & & % % U 2.q.i.c 2 $ . X   O X O O $ T c G 3 2 % @ $ X . . . ",
"X + # % % $ c U * @ = * $ O $ % % ~ ~ ~ } 8.r.$.} ~ u T T T F % u L E W y.q.i.k.l.~ $ O # X .       X # % c Q T % % % % . . X . ",
"@ @ % $ % $ 2 c @ o = = $ O $ % % ~ $ $ ~ r.} ~ ~ u 2 c G 3 : $ $ : t c T } } i.g._ % $ X .     . O O # $ % F 3 $ $ $ $ O O O # ",
"*.L & @ @ @ @ % O . o = o O # # $ $ % % u r.~ # $ = : @ o X X     . O O X $ $ } 1.$.U $           # % #   X @ o . . . O % % ~ ~ ",
"Q L @ @ o o $ ~ O O @ = @ O $ # $ % % % 2 } u # $ @ @ @ o     X   X   O # # $ u } $.U % O X O X X # % # X X = + . .   O % % _ } ",
"6 6 + + O . $ $ $ $ $ @ = @ % ~ u ~ b =.U : : = @ X O X               $ % % % t : F Q c u 2 u % $ #   X = o = o X X . X O $ } r.",
"6 3 O O     $ % % % $ @ @ & % % M % Z =.L @ & & @ O O O X   X X X   X $ % % % & & , L , t % % & % $   X @ + @ @ + X X + + $ b r.",
"% % O O     # % $ % $ % $ % & @ @ @ % j % X + X X o o o o o o o @ t F F 7 , @ & @ + + X +   + @ + & 6 @           X @ @ % : 2.8.",
"$ $ O O     $ % $ % $ % % % $ @ @ + $ % # +     X @ @ @ o @ @ o @ F 7 7 L & @ + @ X           X @ & E %           X @ @ 3 c 8.8.",
"# $ O X     . . $ % #   # @ + + + . # % % $ # X X X X $ : G 3 % $ + + + + X O   X @ o @ X X X + % @ % % $ $ # #     X @ T U U r.",
"# # . + X       + $ X   X o X       # % % % # . .     $ u U T 2 $                 + @ @ @ @ X + % % $ % $ % % #       X U Q } } ",
"% % $ # # # # # X X     X o o o +     + # O # # $ # # $ @ : @ O + # # # $ # # # + @ @ @ $ & , , 6 + + X O O O # # # # $ : 3 : c ",
"*.M % % % % % % X       o o o = X           # % $ % % o @ @ o X . % j % % % $ % % % % $ ; 7 E F E %             % % % % = = = = ",
"# @ % % # # # # X   X o X o X X X X +   + @ # # o $ o o X $ @ O # $ $ # # $ % # # # # # + o @ @ F @ X + # # O # X $ $ o X X o O ",
"    % M X           X @ X       X @ o X @ j % X X X X X   o o o $ # O O O $ % X               X + & % & % % % $ X X X X     X   ",
"  . t 6 % + X X + + o o o X X X + @ o o + Z , @ @ o o X X $ $ $ @ % $ % % % % O           X X o @ + $ + $ $ % & = @ o o X X     ",
"    F L L E M M 6 6 + X o = @ @ o o X X @ *.*.*.F @ o = o O # $ % c c } } ~ % O       X X o @ o + o X o o & *.7 T F o = o o X   ",
"+ + & , & & % $ % % @ @ + o o + X X X o @ & & $ & @ @ = % $ $ ~ ~ $.$.$.} u ~ # + X X + o o o o X X X o o @ $ -.6 3 o o o o X   ",
"t % + o X     X   X @ U $       X   O % #       X % % *.Z j } ,.q.k.d.T F T c c *.@ @ @ @ o X X X X X   . .   . % $     o X o X ",
"6 t + X X           : T $   . . X   # % # . .   + $ $ j b b b r.q.i.i.T c u u % & $ + + o o o + X X     . . . O $ $ O . X o o o ",
"L L t $ X   X O     = Q % $ $ $ + $ % $ % $ % % $ % % % % *.=.y.i.$.} } c # X     # $ + X o @ +       X # % # % $ $ $ $ $ : G F ",
"F 6 % % #   O   X X 2 T : % % $ @ $ % $ $ % $ $ $ $ $ $ % U L =.Q } } } } O O     $ % + X @ & @   + X + % % % % $ % $ $ $ % 6 F ",
"O # % % % % # O $ % 6 Q 3 @ + o + + # $ #       X o @ o o X o * & $ # % % .   .   $ % j U *.=.b % % % $ % $ % % $ $ .   .     # ",
"  . $ % % % $ O $ u c Q & @ @ X X + @ % #       X = o o o   X o @ X # $ % # .   . $ % ;.=.=.y.$.} ~ % % % ~ % % % #             ",
"O # # # } } ~ u b ;.2 $ $ X O   X   @ Z t @ + @ o X X X X   X o @ X   X # # $ % $ $ # ~ b b r.c u ~ $ $ # $ ~ $ . . .     X o + ",
"O O # # ~ } } } ;.*.2 @ X X X       @ L , @ @ @ o           X = @ X       $ % % ~ $ # $ % } b j u $ $ # # $ ~ $ . . .     X @ = ",
"# $ % : T U r.2.U U 6 : % X X       @ L M @ $ $ + $ +         o @ : : = % # O % % $ $ % c } $.$.%.c c c } } } u + X X X X o = o ",
"% @ G G U F i.d.*.U F 3 + # X X     @ L M % $ % % % #         o = F E T F X   $ ~ % % ~ } } } $.%.%.T $.8.8.$.~ @ o o o o = o = ",
"$ % : 2 $.r.q.i.$.c u % : @ @ + @ @ % t # # O O + # # # # % @ % : = = = o X X $ u $ $ ~ } $.%.U T %.T T %.i.2.U : $ X X X X o o ",
"# $ $ $ r.q.q.q.} % $ $ & 3 & @ Z *.M $ O             % t E F c u @ o o o o X % % $ # 2 _ %.y.r.%._ _ %.Q Q u.i.j $     X X o o ",
"$ ~ _ _ 8.q.q.q.1.} ~ ~ u c % : t L 6 6 : o X X X   X u : : o @ # X o X X o o : c u % c *.b } u % ~ % / Z Z Z M j % # +   X X X ",
"} } 1.8.q.q.q.q.8.8.1.$.} ~ } % Z =.E E 6 @ = @ o   X F F X X           X o o F Q U b r.r.b % % % $ % $ $ # + $ b t % $         ",
"_ c } _ 1.q.1.1.} $.%._ b c u u 6 F 6 t : o @ = $ X $ : % X X             + @ : c U b r.r.j % $ # $ # $ # $ $ $ % t t t $ + $ $ ",
"c : % $ 1.8._ ~ ~ $ c G c 3 3 3 & % + X $ % % % u L :                     # % % $ 6 Q U =.b % + . O O + # # % % % % 6 L E E L L ",
"3 3 % 2 $.r.} c 2 2 2 c * c : 3 = % $ O O $ $ # % c 3 O o X O O X       O $ % % $ % 3 3 6 t Z % # + # # # $ % $ $ $ , M : t 6 6 ",
": = 3 3 c F r.2.~ 1 $ 1 1 $ 2 c 2 u % $ $ X O . O % 2 T U T T T 6 X   $ $ u 6 + X X       & E L *.Z M t M ; @ @ @ @   . X X X X ",
"3 3 3 6 6 u U r.~ 1 - 1 $ 1 % 2 ~ ~ u % $ # O . # % u c T c T 3 3 X X $ % : t o X X X X X @ L F 6 6 t t M & o o @ @       . + X ",
"Q T j u j u } } _ _ # O # # % u _ } $.i.} % % ~ % ~ % # # # O o o % t @ + @ @ @ o = o o o @ = X X X % % & +   X X + . X # # # # ",
"T T u % % j % % } j $ # # $ % % } $.%.u.2.u u % j } % # O O O X o 3 t @ o @ @ + @ o @ @ @ @ + O   # $ $ % #   . + + X X # # $ # ",
"3 : O O O # # # % % % % % % } } } ;.$.=.*.U L Q U u u u c $ 2 $ $ o = : t % % $ % X X o o @ % $ $ +       # # % $ % L Z ;.;.;.;.",
"= = O X X . O   $ % % % u ~ } } } } b U U U Q Q U u u c _ 2 $ $ o o o t t % $ % % X   X = @ % % $ #       # % % $ j =.=.$.r.q.8.",
"@ o O X . X   O $ % # # # # # # # # % 3 : : : $ % ;.;.6.$.2 2 = = o o X X X # $ $ $ # % : % $ $ % $ $ $ # # % % # # $ % U Q %.2.",
"$ o X . . . .   $ % #   .   . O X X + * = @ $ # $ 9.9.t.1.~ : = = o X         # % % $ % 2 % % $ $ % % % % $ $ # . . O $ U T Q %.",
"% $ $ o X . . X $ % # . . . X X X o X X X X X # # ~ ~ ,.} ~ u F G : : : % # + $ % $ % % 2 % o $ % # @ % $ $ # X . X O $ u c T T ",
"~ ~ @ @   . . . $ % #   X X X X o X X   X     O # # $ } } } c Q Q F T L L u % % % % % % % $ O o @ @ @ @ $ #     . . O O % 2 T c ",
"O # % @ @ % % = j *.: + + + + @ X X X X     X O # # $ } $.$.c % @ % @ : & t j j % *.b j 2 @ $ o + + o + t @ + + X X $ o @ : = = ",
". . $ % T W u.Q =.=.U : : = = @ X   X         .   X o E E E F O       o = L Q U $.%.i.E 3 : # # O O   $ L F @ + @ @ @ = = @ @ $ ",
". O $ % c %.T T *.*.b c : @ @ @ o X X X X X o @ $ + % % : % % X   O   $ @ 6 c 2.Q i.u.=.c u $ $ # #   # @ % @ $ = = = @ o o O O ",
".   $ % _ } ~ ~ j j ;.6.~ $ % @ $ X o o o o * F F Q 6 X X         X O O # $ $ 2.g.g.g.f.q.} u % $ # . .   + $ % c u u %     X X ",
"O # % % _ } %.%.} } ;.r.~ ~ $ % @ $ @ $ = = * T 6 : @       X X X + $ $ % u } 2.u.f.f.w.8.} } ~ % $ # # + # $ $ % @ : % O O O O ",
"$ $ % u _ $.%.Q $.$._ } 1.q.1.} j % u % t L L L :             + = & 3 2.8.i.i.i.%.%.~ %.t.q.q.1.;.} ~ % % $     X O @ = % % $ $ ",
"% % $ % _ $.3.3.$.} $._ } 1.1.$.~ $ $ $ % F 6 L : X   X # . X @ & : 6 $.r.2.f.2.%.%.~ $.1.1.1.,.;.} } % % $ . X X X @ @ % @ % % ",
"% $ # O 3 G Q Q %._ _ } _ } } 1.% X X   X o + L u $ $ $ $ $ % b F b ~ u u _ _ %._ ~ 2 ~ ~ % % ~ } } u $ O O # O O O = @ o = @ @ ",
"% $ O X 3 G %.Q $.} } _ } _ } r.% X X   X X $ b u % $ % $ % % U U } ~ ~ u ~ _ _ %.~ $ % % % $ ~ } } } $ O O O O O O @ = = @ @ @ "
};
